<?xml version="1.0" standalone="no"?><!DOCTYPE svg PUBLIC "-//W3C//DTD SVG 1.1//EN" "http://www.w3.org/Graphics/SVG/1.1/DTD/svg11.dtd"><svg class="icon" width="200px" height="200.00px" viewBox="0 0 1024 1024" version="1.1" xmlns="http://www.w3.org/2000/svg"><path d="M963.491 937.136c10.956 0 19.973 8.902 19.973 19.973 0 10.957-9.017 19.974-19.973 19.974h-27.849c-10.956 0-19.973-9.017-19.973-19.974 0-11.07 9.017-19.973 19.973-19.973h27.849zM857.35 205.331c5.935 9.359 3.31 21.685-6.049 27.62a19.604 19.604 0 0 1-10.729 3.196c-6.62 0-13.011-3.196-16.777-9.131-33.098-51.358-83.43-89.364-141.864-107.283-10.614-3.195-16.549-14.38-13.354-24.88 3.31-10.614 14.381-16.549 24.995-13.239 67.451 20.543 125.657 64.483 163.778 123.717zM823.909 937.136c10.956 0 19.973 8.902 19.973 19.973 0 10.957-9.017 19.974-19.973 19.974H97.924c-10.957 0-19.973-9.017-19.973-19.974 0-11.07 9.016-19.973 19.973-19.973h725.985zM801.426 573.744c19.401 30.587 20.657 65.511 3.766 103.858-0.342 0.686-0.685 1.37-1.027 1.94l-4.564 7.875c-0.343 0.685-0.799 1.256-1.142 1.826-23.854 32.413-53.185 48.848-87.424 48.848-1.484 0-2.968 0-4.451-0.113-90.62-3.652-187.061-123.376-233.968-190.142a66.846 66.846 0 0 1-19.288 2.853c-5.022 0-9.93-0.685-14.609-1.712-47.25 66.995-143.005 185.349-233.055 189.001-1.483 0.113-2.967 0.113-4.565 0.113-34.239 0-63.571-16.435-87.31-48.848-0.457-0.57-0.913-1.142-1.255-1.826l-4.565-7.875a10.098 10.098 0 0 1-0.913-1.94c-16.891-38.348-15.636-73.271 3.652-103.858 48.163-76.125 198.245-99.864 279.962-107.283 2.511-8.674 6.848-16.435 12.44-23.168-34.467-74.87-87.766-215.25-46.337-294.343 16.892-32.071 46.451-50.674 88.223-55.239 0.685-0.114 1.37-0.114 2.168-0.114h9.13c0.685 0 1.37 0 2.168 0.114 41.658 4.565 71.332 23.168 88.108 55.239 40.974 78.293-10.728 216.392-45.081 291.832 6.505 7.19 11.527 15.636 14.494 25.109 80.236 6.848 236.138 30.016 285.443 107.853z m-32.413 86.854c10.956-25.451 10.5-46.794-1.37-65.511-36.293-57.408-168.343-81.262-252.229-89.022-2.282 6.848-5.707 13.125-9.929 18.718 48.734 68.82 135.13 170.625 202.696 173.364 22.027 0.685 40.858-9.473 57.407-31.614l3.425-5.935z m-302.675-239.56c34.467-77.267 75.098-195.962 44.854-253.598-10.272-19.517-28.647-30.701-56.038-33.897h-6.848c-27.505 3.196-45.88 14.38-56.152 33.897-30.358 57.978 10.614 177.13 45.196 254.283 5.136-1.255 10.5-2.054 15.979-2.054a61.328 61.328 0 0 1 13.009 1.369zM404.251 528.32a63.799 63.799 0 0 1-12.668-21.685c-84.114 8.217-211.598 32.299-247.093 88.452-11.87 18.717-12.212 40.06-1.37 65.511l3.538 5.935c16.435 22.142 35.266 32.413 57.293 31.614 66.424-2.74 150.995-101.121 200.3-169.827z" fill="#97C5EA" /><path d="M767.643 595.087c11.87 18.717 12.326 40.06 1.37 65.511l-3.425 5.935c-16.549 22.142-35.38 32.299-57.407 31.614-67.565-2.739-153.962-104.544-202.696-173.364 4.223-5.593 7.647-11.87 9.929-18.718 83.886 7.76 215.936 31.614 252.229 89.022zM742.763 268.445c7.075 8.446 6.049 21-2.397 28.076-3.766 3.196-8.331 4.679-12.896 4.679-5.707 0-11.299-2.396-15.294-7.076-17.804-21.228-41.201-36.75-67.793-44.853-10.5-3.196-16.435-14.38-13.239-24.881 3.195-10.614 14.38-16.549 24.881-13.239 34.009 10.272 64.025 30.131 86.738 57.294zM559.583 853.364c10.956 0 19.973 8.902 19.973 19.973s-9.017 19.973-19.973 19.973H352.664c-11.071 0-19.973-8.902-19.973-19.973s8.902-19.973 19.973-19.973h83.429V610.837c0-11.071 9.017-19.974 19.973-19.974a19.922 19.922 0 0 1 19.973 19.974v242.527h83.544zM511.191 167.439c30.244 57.636-10.386 176.332-44.854 253.598a61.398 61.398 0 0 0-13.011-1.37c-5.479 0-10.842 0.799-15.979 2.054-34.582-77.152-75.554-196.305-45.196-254.283 10.272-19.517 28.647-30.701 56.152-33.897h6.848c27.393 3.197 45.768 14.382 56.04 33.898zM391.583 506.635a63.815 63.815 0 0 0 12.668 21.685c-49.305 68.706-133.875 167.087-200.299 169.826-22.027 0.799-40.859-9.473-57.293-31.614l-3.538-5.935c-10.842-25.451-10.5-46.794 1.37-65.511 35.493-56.151 162.977-80.233 247.092-88.451zM159.669 316.722c10.5 3.424 16.207 14.608 12.783 25.108-9.016 27.62-9.245 58.207-0.685 86.055 3.195 10.5-2.739 21.685-13.354 24.88-1.94 0.685-3.88 0.913-5.821 0.913-8.56 0-16.435-5.478-19.06-14.152-10.842-35.608-10.5-74.755 0.913-110.021 3.425-10.501 14.724-16.207 25.224-12.783zM57.636 442.38c3.196 10.5-2.739 21.685-13.353 24.88-1.94 0.685-3.881 0.913-5.821 0.913-8.56 0-16.435-5.592-19.06-14.152-17.005-55.582-17.462-114.359-1.37-169.94 3.082-10.614 14.152-16.777 24.767-13.696 10.614 3.082 16.663 14.152 13.582 24.767-13.924 48.162-13.467 99.065 1.255 147.228z" fill="#97C5EA" /><path d="M997.729 902.896c10.957 0 19.974 8.902 19.974 19.973 0 10.957-9.017 19.974-19.974 19.974h-27.848c-10.956 0-19.973-9.017-19.973-19.974 0-11.07 9.017-19.973 19.973-19.973h27.848zM891.589 171.091c5.935 9.359 3.31 21.685-6.049 27.62a19.604 19.604 0 0 1-10.729 3.196c-6.62 0-13.011-3.196-16.777-9.13-33.098-51.359-83.43-89.364-141.864-107.283-10.614-3.196-16.549-14.381-13.354-24.881 3.31-10.614 14.381-16.549 24.995-13.239 67.452 20.543 125.658 64.483 163.778 123.717zM858.148 902.896c10.956 0 19.973 8.902 19.973 19.973 0 10.957-9.017 19.974-19.973 19.974H132.164c-10.957 0-19.973-9.017-19.973-19.974 0-11.07 9.016-19.973 19.973-19.973h725.984zM835.664 539.505c19.402 30.587 20.658 65.511 3.767 103.859-0.342 0.685-0.685 1.369-1.027 1.939l-4.564 7.875c-0.343 0.686-0.8 1.256-1.142 1.826-23.854 32.413-53.185 48.848-87.424 48.848-1.484 0-2.968 0-4.451-0.113-90.62-3.652-187.061-123.376-233.968-190.142a66.812 66.812 0 0 1-19.288 2.853c-5.022 0-9.93-0.685-14.609-1.712-47.25 66.995-143.006 185.349-233.055 189.001-1.484 0.113-2.967 0.113-4.565 0.113-34.239 0-63.57-16.435-87.31-48.848-0.457-0.57-0.913-1.141-1.255-1.826l-4.565-7.875a10.118 10.118 0 0 1-0.913-1.939c-16.891-38.349-15.636-73.272 3.652-103.859 48.163-76.125 198.245-99.864 279.962-107.283 2.511-8.674 6.848-16.435 12.44-23.168-34.467-74.87-87.766-215.25-46.337-294.343 16.891-32.071 46.451-50.674 88.223-55.239 0.685-0.114 1.369-0.114 2.168-0.114h9.13c0.685 0 1.37 0 2.168 0.114 41.657 4.565 71.332 23.168 88.108 55.239 40.974 78.293-10.728 216.392-45.081 291.832 6.505 7.19 11.527 15.636 14.494 25.108 80.236 6.849 236.138 30.017 285.442 107.854z m-32.413 86.853c10.957-25.451 10.5-46.794-1.369-65.511-36.294-57.408-168.343-81.261-252.229-89.022-2.282 6.848-5.707 13.125-9.93 18.717 48.734 68.82 135.131 170.625 202.696 173.364 22.027 0.685 40.858-9.473 57.407-31.614l3.425-5.934z m-302.674-239.56c34.468-77.267 75.098-195.962 44.854-253.598-10.272-19.517-28.647-30.701-56.039-33.897h-6.848c-27.505 3.196-45.88 14.38-56.152 33.897-30.358 57.978 10.614 177.13 45.196 254.283 5.136-1.255 10.5-2.054 15.979-2.054 4.45 0 8.787 0.456 13.01 1.369zM438.49 494.081a63.783 63.783 0 0 1-12.668-21.685c-84.114 8.218-211.598 32.299-247.093 88.452-11.87 18.717-12.212 40.06-1.37 65.511l3.538 5.935c16.435 22.142 35.266 32.413 57.293 31.614 66.425-2.74 150.996-101.121 200.3-169.827z" fill="#024687" /><path d="M801.882 560.848c11.869 18.717 12.326 40.06 1.369 65.511l-3.424 5.935c-16.549 22.142-35.38 32.299-57.407 31.614-67.565-2.739-153.962-104.544-202.696-173.364 4.223-5.592 7.647-11.87 9.93-18.717 83.885 7.759 215.934 31.612 252.228 89.021z" fill="#FFFFFF" /><path d="M777.001 234.206c7.076 8.446 6.05 21-2.396 28.076-3.767 3.196-8.331 4.679-12.896 4.679-5.707 0-11.299-2.396-15.294-7.076-17.804-21.228-41.201-36.75-67.793-44.853-10.5-3.196-16.436-14.38-13.239-24.88 3.195-10.614 14.38-16.549 24.88-13.239 34.01 10.271 64.026 30.129 86.738 57.293zM593.822 819.125c10.956 0 19.973 8.902 19.973 19.973s-9.017 19.973-19.973 19.973H386.903c-11.07 0-19.973-8.902-19.973-19.973s8.902-19.973 19.973-19.973h83.43V576.598c0-11.071 9.016-19.973 19.973-19.973a19.921 19.921 0 0 1 19.973 19.973v242.527h83.543z" fill="#024687" /><path d="M545.431 133.2c30.244 57.636-10.386 176.332-44.854 253.598a61.398 61.398 0 0 0-13.011-1.37c-5.479 0-10.843 0.799-15.979 2.054-34.582-77.152-75.554-196.305-45.196-254.283 10.272-19.517 28.647-30.701 56.152-33.897h6.848c27.392 3.197 45.767 14.382 56.04 33.898zM425.822 472.396a63.815 63.815 0 0 0 12.668 21.685c-49.305 68.706-133.875 167.087-200.299 169.826-22.027 0.799-40.859-9.473-57.293-31.614l-3.538-5.935c-10.842-25.451-10.5-46.794 1.37-65.511 35.494-56.152 162.978-80.233 247.092-88.451z" fill="#FFFFFF" /><path d="M193.908 282.483c10.5 3.424 16.207 14.609 12.783 25.109-9.017 27.619-9.245 58.207-0.685 86.054 3.196 10.5-2.739 21.685-13.353 24.88-1.94 0.685-3.88 0.913-5.821 0.913-8.56 0-16.435-5.478-19.06-14.152-10.843-35.609-10.5-74.756 0.913-110.022 3.424-10.499 14.723-16.206 25.223-12.782zM91.875 408.141c3.196 10.5-2.739 21.685-13.354 24.88-1.94 0.685-3.88 0.913-5.82 0.913-8.56 0-16.435-5.592-19.06-14.152-17.005-55.582-17.462-114.359-1.37-169.94 3.082-10.614 14.152-16.777 24.767-13.695s16.663 14.152 13.582 24.766c-13.924 48.162-13.467 99.065 1.255 147.228z" fill="#024687" /></svg>