<?xml version="1.0" standalone="no"?><!DOCTYPE svg PUBLIC "-//W3C//DTD SVG 1.1//EN" "http://www.w3.org/Graphics/SVG/1.1/DTD/svg11.dtd"><svg class="icon" width="200px" height="200.00px" viewBox="0 0 1024 1024" version="1.1" xmlns="http://www.w3.org/2000/svg"><path fill="#000000" d="M340.37333333 816.85333333c-18.88 0-34.13333333-15.25333333-34.13333333-34.13333333V509.01333333c0-9.06666667 3.62666667-17.81333333 10.13333333-24.21333333l69.22666667-68.69333333c6.4-6.29333333 15.04-9.92 24-9.92h101.44v-136.53333334H353.06666667L204.8 397.54666667v385.17333333c0 18.88-15.25333333 34.13333333-34.13333333 34.13333333s-34.13333333-15.25333333-34.13333334-34.13333333V381.86666667c0-9.92 4.37333333-19.41333333 11.84-25.81333334l169.6-146.34666666c6.18666667-5.33333333 14.08-8.32 22.29333334-8.32h204.8c18.88 0 34.13333333 15.25333333 34.13333333 34.13333333v204.8c0 18.88-15.25333333 34.13333333-34.13333333 34.13333333H423.68l-49.17333333 48.74666667v259.52c0 18.88-15.25333333 34.13333333-34.13333334 34.13333333zM681.81333333 269.65333333c-11.09333333 0-21.97333333-5.44-28.58666666-15.36-10.34666667-15.78666667-5.97333333-36.90666667 9.81333333-47.25333333l103.46666667-68.05333333c15.78666667-10.34666667 36.90666667-5.97333333 47.25333333 9.81333333 10.34666667 15.78666667 5.97333333 36.90666667-9.81333333 47.25333333l-103.46666667 68.05333334c-5.76 3.73333333-12.26666667 5.54666667-18.66666667 5.54666666zM785.17333333 373.33333333h-103.46666666c-18.88 0-34.13333333-15.25333333-34.13333334-34.13333333s15.25333333-34.13333333 34.13333334-34.13333333h103.46666666c18.88 0 34.13333333 15.25333333 34.13333334 34.13333333s-15.25333333 34.13333333-34.13333334 34.13333333zM785.17333333 543.14666667c-6.50666667 0-13.01333333-1.81333333-18.88-5.65333334l-103.46666666-68.69333333c-15.68-10.45333333-19.94666667-31.57333333-9.6-47.36 10.45333333-15.68 31.57333333-19.94666667 47.36-9.6l103.46666666 68.69333333c15.68 10.45333333 19.94666667 31.57333333 9.6 47.36-6.61333333 9.92-17.38666667 15.25333333-28.48 15.25333334z" /></svg>