<?xml version="1.0" standalone="no"?><!DOCTYPE svg PUBLIC "-//W3C//DTD SVG 1.1//EN" "http://www.w3.org/Graphics/SVG/1.1/DTD/svg11.dtd"><svg class="icon" width="200px" height="200.00px" viewBox="0 0 1024 1024" version="1.1" xmlns="http://www.w3.org/2000/svg"><path d="M512.00436587 768.92680853c-141.667056 0-256.92244267-115.25538667-256.9224416-256.92244266s115.25538667-256.92244267 256.9224416-256.9224416S768.91807573 370.33730987 768.91807573 512.00436587 653.67033067 768.92680853 512.00436587 768.92680853z m0-445.3330336c-103.88931947 0-188.40949973 84.52018027-188.40949974 188.40949974S408.1150464 700.4127744 512.00436587 700.4127744c103.88167893 0 188.4018592-84.52018027 188.4018592-188.40949973s-84.52127147-188.40949973-188.4018592-188.40949974zM512.00436587 991.58404693c-18.9183392 0-34.25647147-15.33049173-34.25647147-34.24773866v-98.96325974c0-18.9183392 15.33813227-34.25647147 34.25647147-34.25647146s34.25647147 15.33813227 34.25647146 34.25647146V957.33630827c-0.0010912 18.917248-15.33922347 34.24773867-34.25647146 34.24773866zM512.00436587 199.89215573c-18.9183392 0-34.25647147-15.33813227-34.25647147-34.25647146V66.67242347c0-18.9183392 15.33813227-34.25647147 34.25647147-34.2564704s34.25647147 15.33813227 34.25647146 34.2564704v98.9632608c-0.0010912 18.9183392-15.33922347 34.25647147-34.25647146 34.25647146zM957.32757653 546.25974613h-98.95562026c-18.9183392 0-34.25647147-15.33813227-34.2564704-34.25647146s15.33813227-34.25647147 34.2564704-34.25647147h98.95562026c18.9183392 0 34.25647147 15.33813227 34.2564704 34.25647147s-15.33813227 34.25647147-34.2564704 34.25647146zM165.63568427 546.25974613h-98.9632608c-18.9183392 0-34.25647147-15.33813227-34.2564704-34.25647146s15.33813227-34.25647147 34.2564704-34.25647147h98.9632608c18.9183392 0 34.25647147 15.33813227 34.25647146 34.25647147s-15.33922347 34.25647147-34.25647146 34.25647146zM826.8923296 861.1575328c-8.76495893 0-17.52991787-3.34552853-24.2198848-10.03549547l-69.96794667-69.97668053c-13.38102507-13.38102507-13.38102507-35.0674752 0-48.44085867 13.38102507-13.38102507 35.05874347-13.38102507 48.44085867 0l69.96794773 69.97667947c13.38102507 13.38102507 13.38102507 35.0674752 0 48.44085973a34.14950187 34.14950187 0 0 1-24.22097493 10.03549547zM267.08325867 301.33973013c-8.76495893 0-17.5375584-3.34552853-24.21988374-10.03549546l-69.97667946-69.97667947c-13.38102507-13.37338453-13.38102507-35.0674752 0-48.44085973 13.36465173-13.38102507 35.076208-13.38102507 48.44085973 0l69.97667947 69.97667946c13.38102507 13.37338453 13.38102507 35.0674752 0 48.44085974-6.6834176 6.68996693-15.45601707 10.03549547-24.220976 10.03549546zM197.1065792 861.1575328c-8.76495893 0-17.5375584-3.34552853-24.21988373-10.03549547-13.38102507-13.37338453-13.38102507-35.0674752 0-48.44085973l69.97667946-69.97667947c13.36465173-13.38102507 35.076208-13.38102507 48.44085974 0 13.38102507 13.37338453 13.38102507 35.0674752 0 48.44085867l-69.97667947 69.97668053c-6.6823264 6.68996693-15.45601707 10.03549547-24.220976 10.03549547z" fill="#444444" /><path d="M696.40796373 267.05160427l130.54330774-130.524752 60.55462186 60.5622624-130.54330773 130.524752z" fill="#00D8A0" /></svg>